<?xml version="1.0" encoding="UTF-8" standalone="no"?>
<svg
   width="511.90875pt"
   height="511.68845pt"
   version="1.1"
   viewBox="0 0 511.90875 511.68845"
   id="svg1"
   sodipodi:docname="robot.svg"
   inkscape:version="1.3.2 (091e20e, 2023-11-25)"
   xmlns:inkscape="http://www.inkscape.org/namespaces/inkscape"
   xmlns:sodipodi="http://sodipodi.sourceforge.net/DTD/sodipodi-0.dtd"
   xmlns="http://www.w3.org/2000/svg"
   xmlns:svg="http://www.w3.org/2000/svg">
  <defs
     id="defs1" />
  <sodipodi:namedview
     id="namedview1"
     pagecolor="#ffffff"
     bordercolor="#666666"
     borderopacity="1.0"
     inkscape:showpageshadow="2"
     inkscape:pageopacity="0.0"
     inkscape:pagecheckerboard="0"
     inkscape:deskcolor="#d1d1d1"
     inkscape:document-units="pt"
     inkscape:zoom="0.27229835"
     inkscape:cx="51.414193"
     inkscape:cy="235.03631"
     inkscape:window-width="1440"
     inkscape:window-height="819"
     inkscape:window-x="0"
     inkscape:window-y="25"
     inkscape:window-maximized="1"
     inkscape:current-layer="svg1" />
  <rect
     style="fill:#f8de7e;stroke:#d1d5db;stroke-width:1.91554;stroke-dashoffset:3.2"
     id="rect1"
     width="998.08447"
     height="998.08447"
     x="-239.41904"
     y="-239.91043" />
  <path
     d="m 91.936084,96.289584 c -19.364676,0 -35.299489,15.758306 -35.299489,35.083216 0,16.08164 11.03836,29.72733 25.902932,33.85925 v 61.24794 C 70.89666,231.80694 62.705122,243.5386 62.705122,257.06903 v 44.74916 c 0,18.51059 15.320323,33.6936 33.854364,33.6936 h 11.900444 c 0.52454,29.37455 24.78327,53.11979 54.36566,53.11979 h 197.46549 c 29.58238,0 53.75166,-23.74574 54.2758,-53.11979 h 11.97432 c 18.53604,0 33.78248,-15.1855 33.78248,-33.6936 v -44.74916 c 0,-18.5106 -15.24644,-33.63922 -33.78248,-33.63922 h -11.97432 c -0.48553,-29.40798 -24.66646,-53.17468 -54.2758,-53.17468 l -197.46549,-0.002 c -29.60735,0 -53.88146,23.76519 -54.36566,53.17468 h -7.20316 v -58.16433 c 14.90301,-4.10673 25.97681,-17.7856 25.97681,-33.89668 0,-19.3249 -15.93482,-35.083213 -35.299492,-35.083213 z m 0,18.711186 c 9.322676,0 16.580256,7.23299 16.580256,16.37203 0,9.13904 -7.25758,16.42692 -16.580256,16.42692 -9.322679,0 -16.654131,-7.28938 -16.654131,-16.42692 0,-9.13904 7.329955,-16.37203 16.654131,-16.37203 z m 70.893496,73.96654 h 197.46549 c 19.91278,0 35.57454,15.62958 35.57454,35.35815 v 110.22133 c 0,19.72857 -15.66176,35.35814 -35.57454,35.35814 l -197.46549,-0.002 c -19.91278,0 -35.64642,-15.62958 -35.64642,-35.35815 V 224.32346 c 0,-19.72657 15.73414,-35.35814 35.64642,-35.35814 z m 44.84231,33.63921 c -2.47249,0.006 -4.84359,0.9882 -6.59267,2.73458 -1.75102,1.74638 -2.73965,4.11257 -2.74743,6.58584 v 44.60296 c 0.004,2.47532 0.99057,4.84734 2.73964,6.59781 1.75103,1.75027 4.12408,2.73458 6.60066,2.74042 2.48616,0.01 4.87284,-0.97064 6.63559,-2.72091 1.76271,-1.75221 2.75522,-4.13202 2.76106,-6.61727 v -44.60296 c -0.01,-2.48121 -1.00614,-4.85713 -2.76695,-6.6053 -1.7627,-1.74832 -4.14748,-2.7248 -6.6296,-2.71507 z m 107.70799,0 h 0.002 c -2.48227,-0.01 -4.867,0.96675 -6.62961,2.71507 -1.7626,1.74832 -2.75717,4.12424 -2.76695,6.6053 v 44.60296 c 0.004,2.4851 0.99836,4.86491 2.76106,6.61727 1.76271,1.75027 4.14943,2.73069 6.6356,2.72091 2.47249,-0.01 4.84164,-0.99793 6.58667,-2.7482 1.74713,-1.74832 2.72992,-4.11841 2.73576,-6.58983 v -44.60296 c -0.01,-2.46948 -0.99447,-4.83373 -2.7416,-6.58035 -1.74712,-1.74443 -4.11239,-2.73069 -6.58118,-2.74042 z M 96.559486,242.14 h 11.882974 v 74.66011 H 96.561483 c -8.538468,0 -15.135127,-6.56638 -15.135127,-14.98442 v -44.74916 c 0,-8.41604 6.596659,-14.92803 15.135127,-14.92803 z m 318.027364,0 h 11.95485 c 8.53847,0 15.06325,6.51199 15.06325,14.92803 v 44.74916 c 0,8.41604 -6.52428,14.98441 -15.06325,14.98441 h -11.95485 z m -186.13411,79.6298 h 0.002 c -2.48227,-0.01 -4.867,0.96674 -6.6296,2.71506 -1.76271,1.74833 -2.75717,4.12425 -2.76696,6.6053 -0.01,2.49288 0.9769,4.88831 2.7416,6.6522 1.7627,1.76194 4.15916,2.7482 6.65506,2.73847 h 66.19622 -0.002 c 2.48227,-0.01 4.85922,-1.00377 6.60814,-2.76577 1.74908,-1.75999 2.72597,-4.14375 2.71624,-6.62475 -0.01,-2.46948 -0.99642,-4.83372 -2.7416,-6.58035 -1.74713,-1.74443 -4.11239,-2.73068 -6.58318,-2.74041 z"
     id="path1"
     sodipodi:nodetypes="csccssscsscssssccccccsccssssscsssccssccccccccccccccccscccscccccccccssscccssssccccscsccccsccc"
     style="stroke-width:0.499072" />
</svg>
