<?xml version="1.0" encoding="UTF-8" standalone="no"?>
<svg
   width="511.90875pt"
   height="511.68845pt"
   version="1.1"
   viewBox="0 0 511.90875 511.68845"
   id="svg1"
   sodipodi:docname="robot_error.svg"
   inkscape:version="1.3.2 (091e20e, 2023-11-25)"
   xmlns:inkscape="http://www.inkscape.org/namespaces/inkscape"
   xmlns:sodipodi="http://sodipodi.sourceforge.net/DTD/sodipodi-0.dtd"
   xmlns="http://www.w3.org/2000/svg"
   xmlns:svg="http://www.w3.org/2000/svg">
  <defs
     id="defs1" />
  <sodipodi:namedview
     id="namedview1"
     pagecolor="#ffffff"
     bordercolor="#666666"
     borderopacity="1.0"
     inkscape:showpageshadow="2"
     inkscape:pageopacity="0.0"
     inkscape:pagecheckerboard="0"
     inkscape:deskcolor="#d1d1d1"
     inkscape:document-units="pt"
     inkscape:zoom="0.51702804"
     inkscape:cx="311.3951"
     inkscape:cy="378.12263"
     inkscape:window-width="1512"
     inkscape:window-height="888"
     inkscape:window-x="0"
     inkscape:window-y="38"
     inkscape:window-maximized="1"
     inkscape:current-layer="svg1" />
  <path
     d="m 91.936084,96.289584 c -19.364676,0 -35.299489,15.758306 -35.299489,35.083216 0,16.08164 11.03836,29.72733 25.902932,33.85925 v 61.24794 C 70.89666,231.80694 62.705122,243.5386 62.705122,257.06903 v 44.74916 c 0,18.51059 15.320323,33.6936 33.854364,33.6936 h 11.900444 c 0.52454,29.37455 24.78327,53.11979 54.36566,53.11979 h 197.46549 c 29.58238,0 53.75166,-23.74574 54.2758,-53.11979 h 11.97432 c 18.53604,0 33.78248,-15.1855 33.78248,-33.6936 v -44.74916 c 0,-18.5106 -15.24644,-33.63922 -33.78248,-33.63922 h -11.97432 c -0.48553,-29.40798 -24.66646,-53.17468 -54.2758,-53.17468 l -197.46549,-0.002 c -29.60735,0 -53.88146,23.76519 -54.36566,53.17468 h -7.20316 v -58.16433 c 14.90301,-4.10673 25.97681,-17.7856 25.97681,-33.89668 0,-19.3249 -15.93482,-35.083213 -35.299492,-35.083213 z m 0,18.711186 c 9.322676,0 16.580256,7.23299 16.580256,16.37203 0,9.13904 -7.25758,16.42692 -16.580256,16.42692 -9.322679,0 -16.654131,-7.28938 -16.654131,-16.42692 0,-9.13904 7.329955,-16.37203 16.654131,-16.37203 z m 70.893496,73.96654 h 197.46549 c 19.91278,0 35.57454,15.62958 35.57454,35.35815 v 110.22133 c 0,19.72857 -15.66176,35.35814 -35.57454,35.35814 l -197.46549,-0.002 c -19.91278,0 -35.64642,-15.62958 -35.64642,-35.35815 V 224.32346 c 0,-19.72657 15.73414,-35.35814 35.64642,-35.35814 z M 96.559486,242.14 h 11.882974 v 74.66011 H 96.561483 c -8.538468,0 -15.135127,-6.56638 -15.135127,-14.98442 v -44.74916 c 0,-8.41604 6.596659,-14.92803 15.135127,-14.92803 z m 318.027364,0 h 11.95485 c 8.53847,0 15.06325,6.51199 15.06325,14.92803 v 44.74916 c 0,8.41604 -6.52428,14.98441 -15.06325,14.98441 h -11.95485 z"
     id="path1"
     sodipodi:nodetypes="csccssscsscssssccccccsccssssscsssccsscccccssscccsssscc"
     style="stroke-width:0.499072" />
  <text
     xml:space="preserve"
     style="font-size:144px;line-height:1.25;font-family:US;-inkscape-font-specification:US;text-align:center;text-anchor:middle;stroke-width:0.75"
     x="263.39764"
     y="328.78445"
     id="text1"><tspan
       sodipodi:role="line"
       id="tspan1"
       x="263.39764"
       y="328.78445"
       style="font-style:normal;font-variant:normal;font-weight:bold;font-stretch:normal;font-size:144px;font-family:'.Arial Hebrew Desk Interface';-inkscape-font-specification:'.Arial Hebrew Desk Interface Bold';stroke-width:0.75">!</tspan></text>
</svg>
